<svg id="visual" viewBox="0 0 900 600" width="900" height="600" xmlns="http://www.w3.org/2000/svg" xmlns:xlink="http://www.w3.org/1999/xlink" version="1.1"><path d="M0 23L6 21.2C12 19.3 24 15.7 36 17.5C48 19.3 60 26.7 72 27.8C84 29 96 24 108 22.5C120 21 132 23 144 22.3C156 21.7 168 18.3 180 19C192 19.7 204 24.3 216 25.5C228 26.7 240 24.3 252 25C264 25.7 276 29.3 288 32.3C300 35.3 312 37.7 324 34.2C336 30.7 348 21.3 360 18.7C372 16 384 20 396 19.8C408 19.7 420 15.3 432 20.2C444 25 456 39 468 40.2C480 41.3 492 29.7 504 23.8C516 18 528 18 540 22.7C552 27.3 564 36.7 576 40.3C588 44 600 42 612 42.2C624 42.3 636 44.7 648 44C660 43.3 672 39.7 684 38.3C696 37 708 38 720 37C732 36 744 33 756 27.5C768 22 780 14 792 15.3C804 16.7 816 27.3 828 27.8C840 28.3 852 18.7 864 20.8C876 23 888 37 894 44L900 51L900 0L894 0C888 0 876 0 864 0C852 0 840 0 828 0C816 0 804 0 792 0C780 0 768 0 756 0C744 0 732 0 720 0C708 0 696 0 684 0C672 0 660 0 648 0C636 0 624 0 612 0C600 0 588 0 576 0C564 0 552 0 540 0C528 0 516 0 504 0C492 0 480 0 468 0C456 0 444 0 432 0C420 0 408 0 396 0C384 0 372 0 360 0C348 0 336 0 324 0C312 0 300 0 288 0C276 0 264 0 252 0C240 0 228 0 216 0C204 0 192 0 180 0C168 0 156 0 144 0C132 0 120 0 108 0C96 0 84 0 72 0C60 0 48 0 36 0C24 0 12 0 6 0L0 0Z" fill="#C57B57" stroke-linecap="round" stroke-linejoin="miter"></path></svg>