<svg id="visual" viewBox="0 0 900 600" width="900" height="600" xmlns="http://www.w3.org/2000/svg" xmlns:xlink="http://www.w3.org/1999/xlink" version="1.1"><path d="M0 384L15 393C30 402 60 420 90 438.3C120 456.7 150 475.3 180 487.7C210 500 240 506 270 487.7C300 469.3 330 426.7 360 416.7C390 406.7 420 429.3 450 441.3C480 453.3 510 454.7 540 442.3C570 430 600 404 630 412C660 420 690 462 720 466.5C750 471 780 438 810 420.5C840 403 870 401 885 400L900 399L900 601L885 601C870 601 840 601 810 601C780 601 750 601 720 601C690 601 660 601 630 601C600 601 570 601 540 601C510 601 480 601 450 601C420 601 390 601 360 601C330 601 300 601 270 601C240 601 210 601 180 601C150 601 120 601 90 601C60 601 30 601 15 601L0 601Z" fill="#C57B57" stroke-linecap="round" stroke-linejoin="miter"></path></svg>